{
copyright = "Uncopyrighted (public domain)";
customParameters = (
{
name = "license";
value = "Public domain.";
}
);
date = "2013-06-06 23:41:20 +0000";
designer = "Nathan Sharfi";
familyName = "Abbots Morton Experiment";
featurePrefixes = (
{
code = "languagesystem DFLT dflt;";
name = "Languagesystems";
}
);
features = (
{
code = "#sub [eight-Qs ox-Qs et-Qs] no-Qs' by no-Qs.alt;\012 \012#sub utter-Qs' [low-Qs oolong-Qs see-Qs vie-Qs] by utter-Qs.alt;";
name = calt;
}
);
fontMaster = (
{
ascender = 1000;
capHeight = 1000;
descender = "-500";
guideLines = (
{
position = "{149, 550}";
},
{
position = "{25, -450}";
},
{
position = "{97, 950}";
},
{
position = "{69, -50}";
},
{
position = "{25, 900}";
},
{
position = "{26, -400}";
}
);
horizontalStems = (
50
);
id = "0D4C6578-C4F3-4653-B13A-F1323A6E6F4B";
userData = {
GSOffsetHorizontal = 50;
GSOffsetMakeStroke = 1;
GSOffsetVertical = 50;
};
verticalStems = (
50
);
xHeight = 500;
}
);
glyphs = (
{
glyphname = "ah-Qs";
lastChange = "2013-06-08 08:45:21 -0800";
layers = (
{
layerId = "0D4C6578-C4F3-4653-B13A-F1323A6E6F4B";
name = "Regular";
paths = (
{
closed = 0;
nodes = (
"75 0 LINE",
"200 0 OFFCURVE",
"325 -2 OFFCURVE",
"325 250 CURVE SMOOTH",
"325 498 OFFCURVE",
"450 500 OFFCURVE",
"575 500 CURVE"
);
}
);
width = 650;
}
);
unicode = E676;
},
{
glyphname = "at-Qs";
lastChange = "2013-06-08 08:45:21 -0800";
layers = (
{
layerId = "0D4C6578-C4F3-4653-B13A-F1323A6E6F4B";
name = "Regular";
paths = (
{
closed = 0;
nodes = (
"575 550 LINE",
"575 300 OFFCURVE",
"325 0 OFFCURVE",
"75 0 CURVE"
);
}
);
width = 650;
}
);
unicode = E674;
},
{
glyphname = "awe-Qs";
lastChange = "2013-06-08 08:45:21 -0800";
layers = (
{
layerId = "0D4C6578-C4F3-4653-B13A-F1323A6E6F4B";
name = "Regular";
paths = (
{
closed = 0;
nodes = (
"75 500 LINE",
"200 500 OFFCURVE",
"325 500 OFFCURVE",
"325 250 CURVE SMOOTH",
"325 0 OFFCURVE",
"450 0 OFFCURVE",
"575 0 CURVE"
);
}
);
width = 650;
}
);
unicode = E677;
},
{
glyphname = "bay-Qs";
lastChange = "2013-06-08 08:45:21 -0800";
layers = (
{
layerId = "0D4C6578-C4F3-4653-B13A-F1323A6E6F4B";
name = "Regular";
paths = (
{
closed = 0;
nodes = (
"505 0 LINE",
"188 0 LINE",
"114 0 OFFCURVE",
"75 -83 OFFCURVE",
"75 -165 CURVE SMOOTH",
"75 -243 OFFCURVE",
"111 -320 OFFCURVE",
"188 -320 CURVE SMOOTH",
"355 -320 OFFCURVE",
"364 -125 OFFCURVE",
"364 -49 CURVE SMOOTH",
"364 -31 OFFCURVE",
"364 -14 OFFCURVE",
"364 0 CURVE",
"364 550 LINE"
);
}
);
width = 580;
}
);
unicode = E651;
},
{
glyphname = "cheer-Qs";
lastChange = "2013-06-08 08:45:21 -0800";
layers = (
{
layerId = "0D4C6578-C4F3-4653-B13A-F1323A6E6F4B";
name = "Regular";
paths = (
{
closed = 0;
nodes = (
"75 500 LINE",
"366 753 LINE",
"70 0 OFFCURVE",
"498 0 OFFCURVE",
"606 0 CURVE"
);
}
);
width = 681;
}
);
unicode = E65E;
},
{
glyphname = "day-Qs";
lastChange = "2013-06-08 08:45:21 -0800";
layers = (
{
layerId = "0D4C6578-C4F3-4653-B13A-F1323A6E6F4B";
name = "Regular";
paths = (
{
closed = 0;
nodes = (
"75 503 LINE",
"75 -400 LINE",
"325 0 LINE"
);
}
);
width = 400;
}
);
unicode = E653;
},
{
glyphname = "eat-Qs";
lastChange = "2013-06-08 08:45:21 -0800";
layers = (
{
layerId = "0D4C6578-C4F3-4653-B13A-F1323A6E6F4B";
name = "Regular";
paths = (
{
closed = 0;
nodes = (
"75 -50 LINE",
"328 502 LINE",
"334 -49 LINE"
);
}
);
width = 409;
}
);
unicode = E671;
},
{
glyphname = "eight-Qs";
lastChange = "2013-06-08 08:45:21 -0800";
layers = (
{
layerId = "0D4C6578-C4F3-4653-B13A-F1323A6E6F4B";
name = "Regular";
paths = (
{
closed = 0;
nodes = (
"75 550 LINE",
"75 461 OFFCURVE",
"142 248 OFFCURVE",
"262 197 CURVE SMOOTH",
"363 154 OFFCURVE",
"506 216 OFFCURVE",
"568 265 CURVE SMOOTH",
"618 304 OFFCURVE",
"533 455 OFFCURVE",
"442 457 CURVE SMOOTH",
"337 459 OFFCURVE",
"223 299 OFFCURVE",
"262 197 CURVE SMOOTH",
"309 74 OFFCURVE",
"545 0 OFFCURVE",
"675 0 CURVE"
);
}
);
width = 750;
}
);
unicode = E673;
},
{
glyphname = "et-Qs";
lastChange = "2013-06-08 08:45:21 -0800";
layers = (
{
layerId = "0D4C6578-C4F3-4653-B13A-F1323A6E6F4B";
name = "Regular";
paths = (
{
closed = 0;
nodes = (
"75 550 LINE",
"75 300 OFFCURVE",
"275 0 OFFCURVE",
"525 0 CURVE"
);
}
);
width = 600;
}
);
unicode = E672;
},
{
glyphname = "exam-Qs";
lastChange = "2013-06-08 08:45:21 -0800";
layers = (
{
layerId = "0D4C6578-C4F3-4653-B13A-F1323A6E6F4B";
name = "Regular";
paths = (
{
closed = 0;
nodes = (
"525 -400 LINE",
"75 500 LINE"
);
},
{
closed = 0;
nodes = (
"75 0 LINE",
"325 500 LINE"
);
}
);
width = 600;
}
);
unicode = E66C;
},
{
glyphname = "excite-Qs";
lastChange = "2013-06-08 08:45:21 -0800";
layers = (
{
layerId = "0D4C6578-C4F3-4653-B13A-F1323A6E6F4B";
name = "Regular";
paths = (
{
closed = 0;
nodes = (
"75 900 LINE",
"525 0 LINE"
);
},
{
closed = 0;
nodes = (
"525 500 LINE",
"275 0 LINE"
);
}
);
width = 600;
}
);
unicode = E66B;
},
{
glyphname = "fee-Qs";
lastChange = "2013-06-08 08:45:21 -0800";
layers = (
{
layerId = "0D4C6578-C4F3-4653-B13A-F1323A6E6F4B";
name = "Regular";
paths = (
{
closed = 0;
nodes = (
"309 500 LINE",
"110 500 OFFCURVE",
"-65 0 OFFCURVE",
"240 0 CURVE SMOOTH",
"425 0 OFFCURVE",
"372 900 OFFCURVE",
"240 900 CURVE"
);
}
);
width = 435;
}
);
unicode = E658;
},
{
glyphname = "foot-Qs";
lastChange = "2013-06-08 08:45:21 -0800";
layers = (
{
layerId = "0D4C6578-C4F3-4653-B13A-F1323A6E6F4B";
name = "Regular";
paths = (
{
closed = 0;
nodes = (
"75 550 LINE",
"75 -182 OFFCURVE",
"430 -182 OFFCURVE",
"430 550 CURVE"
);
}
);
width = 505;
}
);
unicode = E67D;
},
{
glyphname = "gay-Qs";
lastChange = "2013-06-10 05:42:59 -0800";
layers = (
{
layerId = "0D4C6578-C4F3-4653-B13A-F1323A6E6F4B";
name = "Regular";
paths = (
{
closed = 0;
nodes = (
"458 501 LINE",
"404 501 OFFCURVE",
"208 501 OFFCURVE",
"208 296 CURVE SMOOTH",
"208 169 OFFCURVE",
"408 50 OFFCURVE",
"408 -166 CURVE SMOOTH",
"408 -220 OFFCURVE",
"339 -400 OFFCURVE",
"158 -400 CURVE",
"-21 -400 OFFCURVE",
"104 0 OFFCURVE",
"383 3 CURVE"
);
}
);
width = 508;
}
);
unicode = E655;
},
{
glyphname = "he-Qs";
lastChange = "2013-06-09 20:48:49 -0800";
layers = (
{
layerId = "0D4C6578-C4F3-4653-B13A-F1323A6E6F4B";
name = "Regular";
paths = (
{
closed = 0;
nodes = (
"369 900 LINE",
"157 948 OFFCURVE",
"75 900 OFFCURVE",
"75 786 CURVE",
"82 -50 LINE"
);
}
);
width = 162;
}
);
unicode = E662;
},
{
glyphname = "i-Qs";
lastChange = "2013-06-08 08:45:21 -0800";
layers = (
{
layerId = "0D4C6578-C4F3-4653-B13A-F1323A6E6F4B";
name = "Regular";
paths = (
{
closed = 0;
nodes = (
"675 550 LINE",
"675 461 OFFCURVE",
"608 248 OFFCURVE",
"488 197 CURVE SMOOTH",
"387 154 OFFCURVE",
"244 216 OFFCURVE",
"182 265 CURVE SMOOTH",
"132 304 OFFCURVE",
"217 455 OFFCURVE",
"308 457 CURVE SMOOTH",
"413 459 OFFCURVE",
"527 299 OFFCURVE",
"488 197 CURVE SMOOTH",
"441 74 OFFCURVE",
"205 0 OFFCURVE",
"75 0 CURVE"
);
}
);
width = 750;
}
);
unicode = E675;
},
{
glyphname = "it-Qs";
lastChange = "2013-06-08 08:42:26 -0800";
layers = (
{
layerId = "0D4C6578-C4F3-4653-B13A-F1323A6E6F4B";
name = "Regular";
paths = (
{
closed = 0;
nodes = (
"75 550 LINE",
"75 -50 LINE"
);
}
);
width = 150;
}
);
unicode = E670;
},
{
glyphname = "jay-Qs";
lastChange = "2013-06-08 08:45:21 -0800";
layers = (
{
layerId = "0D4C6578-C4F3-4653-B13A-F1323A6E6F4B";
name = "Regular";
paths = (
{
closed = 0;
nodes = (
"606 0 LINE",
"315 -253 LINE",
"611 500 OFFCURVE",
"183 500 OFFCURVE",
"75 500 CURVE"
);
}
);
width = 681;
}
);
unicode = E65F;
},
{
glyphname = "key-Qs";
lastChange = "2013-06-08 08:45:21 -0800";
layers = (
{
layerId = "0D4C6578-C4F3-4653-B13A-F1323A6E6F4B";
name = "Regular";
paths = (
{
closed = 0;
nodes = (
"75 905 LINE",
"138 773 OFFCURVE",
"262 641 OFFCURVE",
"263 509 CURVE",
"-96 237 OFFCURVE",
"185 0 OFFCURVE",
"385 0 CURVE SMOOTH"
);
}
);
width = 460;
}
);
unicode = E654;
},
{
glyphname = "llan-Qs";
lastChange = "2013-06-08 08:45:21 -0800";
layers = (
{
layerId = "0D4C6578-C4F3-4653-B13A-F1323A6E6F4B";
name = "Regular";
paths = (
{
closed = 0;
nodes = (
"560 0 LINE",
"262 0 OFFCURVE",
"107 72 OFFCURVE",
"107 154 CURVE SMOOTH",
"107 217 OFFCURVE",
"226 296 OFFCURVE",
"475 296 CURVE",
"444 296 OFFCURVE",
"146 500 OFFCURVE",
"75 500 CURVE"
);
}
);
width = 635;
}
);
unicode = E66A;
},
{
glyphname = "loch-Qs";
lastChange = "2013-06-08 08:45:21 -0800";
layers = (
{
layerId = "0D4C6578-C4F3-4653-B13A-F1323A6E6F4B";
name = "Regular";
paths = (
{
closed = 0;
nodes = (
"275 900 LINE",
"275 0 LINE",
"105 0 OFFCURVE",
"75 128 OFFCURVE",
"75 250 CURVE SMOOTH",
"75 391 OFFCURVE",
"105 500 OFFCURVE",
"275 500 CURVE SMOOTH",
"445 500 OFFCURVE",
"475 391 OFFCURVE",
"475 -50 CURVE"
);
}
);
width = 550;
}
);
unicode = E669;
},
{
glyphname = "low-Qs";
lastChange = "2013-06-08 08:45:21 -0800";
layers = (
{
layerId = "0D4C6578-C4F3-4653-B13A-F1323A6E6F4B";
name = "Regular";
paths = (
{
closed = 0;
nodes = (
"75 0 LINE",
"373 0 OFFCURVE",
"528 72 OFFCURVE",
"528 154 CURVE SMOOTH",
"528 217 OFFCURVE",
"409 296 OFFCURVE",
"160 296 CURVE",
"191 296 OFFCURVE",
"489 500 OFFCURVE",
"560 500 CURVE"
);
}
);
width = 635;
}
);
unicode = E667;
},
{
glyphname = "may-Qs";
lastChange = "2013-06-08 08:45:21 -0800";
layers = (
{
layerId = "0D4C6578-C4F3-4653-B13A-F1323A6E6F4B";
name = "Regular";
paths = (
{
closed = 0;
nodes = (
"366 500 LINE",
"177 500 OFFCURVE",
"75 125 OFFCURVE",
"75 2 CURVE SMOOTH",
"75 -354 OFFCURVE",
"183 -400 OFFCURVE",
"201 -400 CURVE SMOOTH",
"410 -400 OFFCURVE",
"457 -71 OFFCURVE",
"405 15 CURVE SMOOTH",
"351 103 OFFCURVE",
"248 81 OFFCURVE",
"140 26 CURVE SMOOTH"
);
}
);
width = 499;
}
);
unicode = E665;
},
{
glyphname = "no-Qs";
lastChange = "2013-06-08 08:45:21 -0800";
layers = (
{
layerId = "0D4C6578-C4F3-4653-B13A-F1323A6E6F4B";
name = "Regular";
paths = (
{
closed = 0;
nodes = (
"75 500 LINE",
"275 500 OFFCURVE",
"477 409 OFFCURVE",
"478 250 CURVE SMOOTH",
"480 -70 OFFCURVE",
"172 -70 OFFCURVE",
"172 250 CURVE SMOOTH",
"172 409 OFFCURVE",
"376 500 OFFCURVE",
"576 500 CURVE"
);
}
);
width = 651;
}
);
unicode = E666;
},
{
glyphname = "no-Qs.alt";
lastChange = "2013-06-08 08:45:21 -0800";
layers = (
{
layerId = "0D4C6578-C4F3-4653-B13A-F1323A6E6F4B";
name = "Regular";
paths = (
{
closed = 0;
nodes = (
"75 0 LINE",
"275 0 OFFCURVE",
"477 91 OFFCURVE",
"478 250 CURVE SMOOTH",
"480 570 OFFCURVE",
"172 570 OFFCURVE",
"172 250 CURVE SMOOTH",
"172 91 OFFCURVE",
"376 0 OFFCURVE",
"576 0 CURVE"
);
}
);
width = 651;
}
);
},
{
glyphname = "oolong-Qs";
lastChange = "2013-06-08 08:45:21 -0800";
layers = (
{
layerId = "0D4C6578-C4F3-4653-B13A-F1323A6E6F4B";
name = "Regular";
paths = (
{
closed = 0;
nodes = (
"75 0 LINE",
"275 0 OFFCURVE",
"477 500 OFFCURVE",
"478 659 CURVE SMOOTH",
"480 979 OFFCURVE",
"172 979 OFFCURVE",
"172 659 CURVE SMOOTH",
"172 500 OFFCURVE",
"376 0 OFFCURVE",
"576 0 CURVE"
);
}
);
width = 651;
}
);
unicode = E664;
},
{
glyphname = "ooze-Qs";
lastChange = "2013-06-08 08:45:21 -0800";
layers = (
{
layerId = "0D4C6578-C4F3-4653-B13A-F1323A6E6F4B";
name = "Regular";
paths = (
{
closed = 0;
nodes = (
"75 -50 LINE",
"75 682 OFFCURVE",
"430 682 OFFCURVE",
"430 -50 CURVE"
);
}
);
width = 505;
}
);
unicode = E67E;
},
{
glyphname = "out-Qs";
lastChange = "2013-06-08 08:45:21 -0800";
layers = (
{
layerId = "0D4C6578-C4F3-4653-B13A-F1323A6E6F4B";
name = "Regular";
paths = (
{
closed = 0;
nodes = (
"75 0 LINE",
"186 198 OFFCURVE",
"393 464 OFFCURVE",
"446 480 CURVE SMOOTH",
"498 496 OFFCURVE",
"553 489 OFFCURVE",
"585 443 CURVE SMOOTH",
"617 396 OFFCURVE",
"605 333 OFFCURVE",
"561 303 CURVE SMOOTH",
"515 271 OFFCURVE",
"453 283 OFFCURVE",
"421 330 CURVE SMOOTH",
"389 376 OFFCURVE",
"410 460 OFFCURVE",
"446 470 CURVE SMOOTH",
"522 492 OFFCURVE",
"599 500 OFFCURVE",
"675 500 CURVE"
);
}
);
width = 750;
}
);
unicode = E67B;
},
{
glyphname = "owe-Qs";
lastChange = "2013-06-08 08:45:21 -0800";
layers = (
{
layerId = "0D4C6578-C4F3-4653-B13A-F1323A6E6F4B";
name = "Regular";
paths = (
{
closed = 0;
nodes = (
"326 500 LINE",
"187 500 OFFCURVE",
"75 388 OFFCURVE",
"75 250 CURVE SMOOTH",
"75 111 OFFCURVE",
"187 0 OFFCURVE",
"326 0 CURVE SMOOTH",
"464 0 OFFCURVE",
"576 111 OFFCURVE",
"576 250 CURVE SMOOTH",
"576 388 OFFCURVE",
"464 500 OFFCURVE",
"326 500 CURVE"
);
}
);
width = 651;
}
);
unicode = E67C;
},
{
glyphname = "ox-Qs";
lastChange = "2013-06-08 08:45:21 -0800";
layers = (
{
layerId = "0D4C6578-C4F3-4653-B13A-F1323A6E6F4B";
name = "Regular";
paths = (
{
closed = 0;
nodes = (
"575 -50 LINE",
"575 200 OFFCURVE",
"325 500 OFFCURVE",
"75 500 CURVE SMOOTH"
);
}
);
width = 650;
}
);
unicode = E678;
},
{
glyphname = "oy-Qs";
lastChange = "2013-06-08 08:45:21 -0800";
layers = (
{
layerId = "0D4C6578-C4F3-4653-B13A-F1323A6E6F4B";
name = "Regular";
paths = (
{
closed = 0;
nodes = (
"675 0 LINE",
"564 198 OFFCURVE",
"357 464 OFFCURVE",
"304 480 CURVE SMOOTH",
"252 496 OFFCURVE",
"197 489 OFFCURVE",
"165 443 CURVE SMOOTH",
"133 396 OFFCURVE",
"145 333 OFFCURVE",
"189 303 CURVE SMOOTH",
"235 271 OFFCURVE",
"297 283 OFFCURVE",
"329 330 CURVE SMOOTH",
"361 376 OFFCURVE",
"340 460 OFFCURVE",
"304 470 CURVE SMOOTH",
"228 492 OFFCURVE",
"151 500 OFFCURVE",
"75 500 CURVE"
);
}
);
width = 750;
}
);
unicode = E679;
},
{
glyphname = "pea-Qs";
lastChange = "2013-06-08 08:45:19 -0800";
layers = (
{
layerId = "0D4C6578-C4F3-4653-B13A-F1323A6E6F4B";
name = "Regular";
paths = (
{
closed = 0;
nodes = (
"352 -50 LINE",
"345 711 LINE",
"345 983 OFFCURVE",
"75 983 OFFCURVE",
"75 550 CURVE SMOOTH"
);
}
);
width = 427;
}
);
unicode = E650;
},
{
glyphname = "roe-Qs";
lastChange = "2013-06-08 08:45:21 -0800";
layers = (
{
layerId = "0D4C6578-C4F3-4653-B13A-F1323A6E6F4B";
name = "Regular";
paths = (
{
closed = 0;
nodes = (
"75 500 LINE",
"225 500 OFFCURVE",
"400 465 OFFCURVE",
"400 265 CURVE SMOOTH",
"400 65 OFFCURVE",
"225 0 OFFCURVE",
"75 0 CURVE SMOOTH"
);
}
);
width = 475;
}
);
unicode = E668;
},
{
glyphname = "see-Qs";
lastChange = "2013-06-08 08:45:21 -0800";
layers = (
{
layerId = "0D4C6578-C4F3-4653-B13A-F1323A6E6F4B";
name = "Regular";
paths = (
{
closed = 0;
nodes = (
"75 0 LINE",
"256 0 OFFCURVE",
"325 180 OFFCURVE",
"325 234 CURVE SMOOTH",
"325 450 OFFCURVE",
"125 569 OFFCURVE",
"125 696 CURVE SMOOTH",
"125 901 OFFCURVE",
"321 901 OFFCURVE",
"375 901 CURVE"
);
}
);
width = 450;
}
);
unicode = E65A;
},
{
glyphname = "she-Qs";
lastChange = "2013-06-08 08:45:21 -0800";
layers = (
{
layerId = "0D4C6578-C4F3-4653-B13A-F1323A6E6F4B";
name = "Regular";
paths = (
{
closed = 0;
nodes = (
"306 900 LINE",
"282 848 OFFCURVE",
"-56 24 OFFCURVE",
"132 -19 CURVE SMOOTH",
"229 -41 OFFCURVE",
"342 -18 OFFCURVE",
"444 0 CURVE SMOOTH"
);
}
);
width = 519;
}
);
unicode = E65C;
},
{
glyphname = "tea-Qs";
lastChange = "2013-06-08 08:42:08 -0800";
layers = (
{
layerId = "0D4C6578-C4F3-4653-B13A-F1323A6E6F4B";
name = "Regular";
paths = (
{
closed = 0;
nodes = (
"75 900 LINE",
"75 -50 LINE"
);
}
);
width = 150;
}
);
unicode = E652;
},
{
glyphname = "thaw-Qs";
lastChange = "2013-06-08 08:45:21 -0800";
layers = (
{
layerId = "0D4C6578-C4F3-4653-B13A-F1323A6E6F4B";
name = "Regular";
paths = (
{
closed = 0;
nodes = (
"213 0 LINE",
"237 52 OFFCURVE",
"575 876 OFFCURVE",
"387 919 CURVE SMOOTH",
"290 941 OFFCURVE",
"177 918 OFFCURVE",
"75 900 CURVE SMOOTH"
);
}
);
width = 519;
}
);
unicode = E656;
},
{
glyphname = "they-Qs";
lastChange = "2013-06-08 08:45:21 -0800";
layers = (
{
layerId = "0D4C6578-C4F3-4653-B13A-F1323A6E6F4B";
name = "Regular";
paths = (
{
closed = 0;
nodes = (
"306 500 LINE",
"282 448 OFFCURVE",
"-56 -376 OFFCURVE",
"132 -419 CURVE SMOOTH",
"229 -441 OFFCURVE",
"342 -418 OFFCURVE",
"444 -400 CURVE SMOOTH"
);
}
);
width = 519;
}
);
unicode = E657;
},
{
glyphname = "utter-Qs";
lastChange = "2013-06-08 08:45:21 -0800";
layers = (
{
layerId = "0D4C6578-C4F3-4653-B13A-F1323A6E6F4B";
name = "Regular";
paths = (
{
closed = 0;
nodes = (
"75 -50 LINE",
"75 200 OFFCURVE",
"325 500 OFFCURVE",
"575 500 CURVE SMOOTH"
);
}
);
width = 650;
}
);
unicode = E67A;
},
{
glyphname = "utter-Qs.alt";
lastChange = "2013-06-08 08:45:21 -0800";
layers = (
{
layerId = "0D4C6578-C4F3-4653-B13A-F1323A6E6F4B";
name = "Regular";
paths = (
{
closed = 0;
nodes = (
"471 0 LINE",
"-82 0 OFFCURVE",
"55 357 OFFCURVE",
"223 500 CURVE SMOOTH"
);
}
);
width = 546;
}
);
},
{
glyphname = "vie-Qs";
lastChange = "2013-06-08 08:45:21 -0800";
layers = (
{
layerId = "0D4C6578-C4F3-4653-B13A-F1323A6E6F4B";
name = "Regular";
paths = (
{
closed = 0;
nodes = (
"126 0 LINE",
"325 0 OFFCURVE",
"500 500 OFFCURVE",
"195 500 CURVE SMOOTH",
"10 500 OFFCURVE",
"63 -400 OFFCURVE",
"195 -400 CURVE SMOOTH",
"380 -400 OFFCURVE",
"379 -151 OFFCURVE",
"379 0 CURVE"
);
}
);
width = 454;
}
);
unicode = E659;
},
{
glyphname = "way-Qs";
lastChange = "2013-06-08 08:45:21 -0800";
layers = (
{
layerId = "0D4C6578-C4F3-4653-B13A-F1323A6E6F4B";
name = "Regular";
paths = (
{
closed = 0;
nodes = (
"475 500 LINE",
"75 -400 LINE"
);
}
);
width = 550;
}
);
unicode = E661;
},
{
glyphname = "why-Qs";
lastChange = "2013-06-08 08:45:21 -0800";
layers = (
{
layerId = "0D4C6578-C4F3-4653-B13A-F1323A6E6F4B";
name = "Regular";
paths = (
{
closed = 0;
nodes = (
"546 500 LINE",
"146 -400 LINE",
"75 -109 LINE"
);
}
);
width = 621;
}
);
unicode = E663;
},
{
glyphname = "ye-Qs";
lastChange = "2013-06-08 08:45:21 -0800";
layers = (
{
layerId = "0D4C6578-C4F3-4653-B13A-F1323A6E6F4B";
name = "Regular";
paths = (
{
closed = 0;
nodes = (
"75 500 LINE",
"377 500 OFFCURVE",
"471 593 OFFCURVE",
"471 689 CURVE SMOOTH",
"471 790 OFFCURVE",
"367 894 OFFCURVE",
"294 894 CURVE SMOOTH",
"248 894 OFFCURVE",
"224 855 OFFCURVE",
"224 786 CURVE SMOOTH",
"231 -50 LINE"
);
}
);
width = 546;
}
);
unicode = E660;
},
{
glyphname = "zhivago-Qs";
lastChange = "2013-06-08 08:45:21 -0800";
layers = (
{
layerId = "0D4C6578-C4F3-4653-B13A-F1323A6E6F4B";
name = "Regular";
paths = (
{
closed = 0;
nodes = (
"605 0 LINE",
"258 0 OFFCURVE",
"116 -234 OFFCURVE",
"116 -344 CURVE SMOOTH",
"116 -377 OFFCURVE",
"129 -399 OFFCURVE",
"154 -399 CURVE SMOOTH",
"174 -399 OFFCURVE",
"201 -386 OFFCURVE",
"234 -353 CURVE SMOOTH",
"258 -330 OFFCURVE",
"285 -297 OFFCURVE",
"315 -253 CURVE SMOOTH",
"439 -70 OFFCURVE",
"486 69 OFFCURVE",
"486 175 CURVE SMOOTH",
"486 457 OFFCURVE",
"154 500 OFFCURVE",
"75 500 CURVE"
);
}
);
width = 680;
}
);
unicode = E65D;
},
{
glyphname = "zoo-Qs";
lastChange = "2013-06-08 08:45:21 -0800";
layers = (
{
layerId = "0D4C6578-C4F3-4653-B13A-F1323A6E6F4B";
name = "Regular";
paths = (
{
closed = 0;
nodes = (
"80 500 LINE",
"120 526 OFFCURVE",
"366 550 OFFCURVE",
"366 384 CURVE SMOOTH",
"366 270 OFFCURVE",
"140 102 OFFCURVE",
"87 -98 CURVE SMOOTH",
"45 -258 OFFCURVE",
"118 -400 OFFCURVE",
"246 -400 CURVE SMOOTH",
"401 -400 OFFCURVE",
"403 -129 OFFCURVE",
"403 0 CURVE SMOOTH"
);
}
);
width = 478;
}
);
unicode = E65B;
},
{
glyphname = "zero";
lastChange = "2013-06-16 20:04:34 -0800";
layers = (
{
layerId = "0D4C6578-C4F3-4653-B13A-F1323A6E6F4B";
name = "Regular";
paths = (
{
closed = 1;
nodes = (
"637 -450 OFFCURVE",
"775 -137 OFFCURVE",
"775 250 CURVE SMOOTH",
"775 637 OFFCURVE",
"637 950 OFFCURVE",
"425 950 CURVE SMOOTH",
"213 950 OFFCURVE",
"75 637 OFFCURVE",
"75 250 CURVE SMOOTH",
"75 -137 OFFCURVE",
"213 -450 OFFCURVE",
"425 -450 CURVE SMOOTH"
);
}
);
width = 850;
}
);
unicode = 0030;
},
{
glyphname = "one";
lastChange = "2013-06-12 22:45:55 -0800";
layers = (
{
layerId = "0D4C6578-C4F3-4653-B13A-F1323A6E6F4B";
name = "Regular";
paths = (
{
closed = 0;
nodes = (
"293 950 LINE",
"293 -450 LINE"
);
}
);
width = 600;
}
);
unicode = 0031;
},
{
glyphname = "two";
lastChange = "2013-06-12 22:51:31 -0800";
layers = (
{
layerId = "0D4C6578-C4F3-4653-B13A-F1323A6E6F4B";
name = "Regular";
paths = (
{
closed = 0;
nodes = (
"110 834 LINE",
"536 1000 OFFCURVE",
"749 954 OFFCURVE",
"748 832 CURVE SMOOTH",
"745 494 OFFCURVE",
"-70 -450 OFFCURVE",
"231 -450 CURVE",
"754 -450 LINE"
);
}
);
width = 800;
}
);
unicode = 0032;
},
{
glyphname = "three";
lastChange = "2013-06-12 22:57:45 -0800";
layers = (
{
layerId = "0D4C6578-C4F3-4653-B13A-F1323A6E6F4B";
name = "Regular";
paths = (
{
closed = 0;
nodes = (
"102 948 LINE",
"426 950 OFFCURVE",
"660 800 OFFCURVE",
"660 662 CURVE SMOOTH",
"660 476 OFFCURVE",
"330 267 OFFCURVE",
"102 267 CURVE",
"330 267 OFFCURVE",
"656 30 OFFCURVE",
"656 -166 CURVE SMOOTH",
"656 -300 OFFCURVE",
"426 -450 OFFCURVE",
"102 -449 CURVE"
);
}
);
width = 800;
}
);
unicode = 0033;
},
{
glyphname = "four";
lastChange = "2013-06-12 23:00:14 -0800";
layers = (
{
layerId = "0D4C6578-C4F3-4653-B13A-F1323A6E6F4B";
name = "Regular";
paths = (
{
closed = 0;
nodes = (
"214 950 LINE",
"211 283 LINE",
"608 283 LINE"
);
},
{
closed = 0;
nodes = (
"500 950 LINE",
"500 -450 LINE"
);
}
);
width = 800;
}
);
unicode = 0034;
},
{
glyphname = "backslash";
lastChange = "2013-06-12 20:25:30 -0800";
layers = (
{
layerId = "0D4C6578-C4F3-4653-B13A-F1323A6E6F4B";
name = "Regular";
paths = (
{
closed = 0;
nodes = (
"575 -450 LINE",
"75 950 LINE"
);
}
);
width = 650;
}
);
unicode = 005C;
},
{
glyphname = "slash";
lastChange = "2013-06-12 20:24:57 -0800";
layers = (
{
layerId = "0D4C6578-C4F3-4653-B13A-F1323A6E6F4B";
name = "Regular";
paths = (
{
closed = 0;
nodes = (
"75 -450 LINE",
"575 950 LINE"
);
}
);
width = 650;
}
);
unicode = 002F;
},
{
glyphname = "underscore";
lastChange = "2013-06-12 20:58:33 -0800";
layers = (
{
layerId = "0D4C6578-C4F3-4653-B13A-F1323A6E6F4B";
name = "Regular";
paths = (
{
closed = 0;
nodes = (
"0 -450 LINE",
"600 -450 LINE"
);
}
);
width = 600;
}
);
unicode = 005F;
},
{
glyphname = "braceleft";
lastChange = "2013-06-12 20:48:28 -0800";
layers = (
{
layerId = "0D4C6578-C4F3-4653-B13A-F1323A6E6F4B";
name = "Regular";
paths = (
{
closed = 0;
nodes = (
"456 954 LINE",
"156 950 OFFCURVE",
"492 232 OFFCURVE",
"75 232 CURVE",
"492 232 OFFCURVE",
"111 -450 OFFCURVE",
"411 -450 CURVE SMOOTH"
);
}
);
width = 531;
}
);
unicode = 007B;
},
{
glyphname = "braceright";
lastChange = "2013-06-12 20:48:58 -0800";
layers = (
{
layerId = "0D4C6578-C4F3-4653-B13A-F1323A6E6F4B";
name = "Regular";
paths = (
{
closed = 0;
nodes = (
"75 954 LINE",
"375 950 OFFCURVE",
"39 232 OFFCURVE",
"456 232 CURVE",
"39 232 OFFCURVE",
"420 -450 OFFCURVE",
"120 -450 CURVE SMOOTH"
);
}
);
width = 531;
}
);
unicode = 007D;
},
{
glyphname = "bracketleft";
lastChange = "2013-06-12 20:28:12 -0800";
layers = (
{
layerId = "0D4C6578-C4F3-4653-B13A-F1323A6E6F4B";
name = "Regular";
paths = (
{
closed = 0;
nodes = (
"325 950 LINE",
"75 950 LINE",
"75 -450 LINE",
"325 -450 LINE"
);
}
);
width = 400;
}
);
unicode = 005B;
},
{
glyphname = "bracketright";
lastChange = "2013-06-12 20:30:21 -0800";
layers = (
{
layerId = "0D4C6578-C4F3-4653-B13A-F1323A6E6F4B";
name = "Regular";
paths = (
{
closed = 0;
nodes = (
"75 950 LINE",
"325 950 LINE",
"325 -450 LINE",
"75 -450 LINE"
);
}
);
width = 400;
}
);
unicode = 005D;
},
{
glyphname = "parenleft";
lastChange = "2013-06-12 19:38:55 -0800";
layers = (
{
layerId = "0D4C6578-C4F3-4653-B13A-F1323A6E6F4B";
name = "Regular";
paths = (
{
closed = 0;
nodes = (
"300 950 LINE",
"0 650 OFFCURVE",
"0 -150 OFFCURVE",
"300 -450 CURVE"
);
}
);
width = 350;
}
);
unicode = 0028;
},
{
glyphname = "parenright";
lastChange = "2013-06-12 20:29:15 -0800";
layers = (
{
layerId = "0D4C6578-C4F3-4653-B13A-F1323A6E6F4B";
name = "Regular";
paths = (
{
closed = 0;
nodes = (
"100 950 LINE",
"400 650 OFFCURVE",
"400 -150 OFFCURVE",
"100 -450 CURVE"
);
}
);
width = 350;
}
);
unicode = 0029;
},
{
glyphname = "emdash";
lastChange = "2013-06-12 20:17:19 -0800";
layers = (
{
layerId = "0D4C6578-C4F3-4653-B13A-F1323A6E6F4B";
name = "Regular";
paths = (
{
closed = 0;
nodes = (
"75 291 LINE",
"975 291 LINE"
);
}
);
width = 1050;
}
);
unicode = 2014;
},
{
glyphname = "endash";
lastChange = "2013-06-12 19:50:08 -0800";
layers = (
{
layerId = "0D4C6578-C4F3-4653-B13A-F1323A6E6F4B";
name = "Regular";
paths = (
{
closed = 0;
nodes = (
"75 291 LINE",
"575 291 LINE"
);
}
);
width = 650;
}
);
unicode = 2013;
},
{
glyphname = "hyphen";
lastChange = "2013-06-12 19:49:03 -0800";
layers = (
{
layerId = "0D4C6578-C4F3-4653-B13A-F1323A6E6F4B";
name = "Regular";
paths = (
{
closed = 0;
nodes = (
"75 291 LINE",
"475 291 LINE"
);
}
);
width = 550;
}
);
unicode = 002D;
},
{
glyphname = "leftangledparenthesis-Qs";
lastChange = "2013-06-07 19:13:07 -0800";
layers = (
{
layerId = "0D4C6578-C4F3-4653-B13A-F1323A6E6F4B";
name = "Regular";
paths = (
{
closed = 0;
nodes = (
"550 950 LINE",
"100 -450 LINE",
"550 -450 LINE"
);
}
);
width = 600;
}
);
unicode = E66E;
},
{
glyphname = "rightangledparenthesis-Qs";
lastChange = "2013-06-07 19:17:05 -0800";
layers = (
{
layerId = "0D4C6578-C4F3-4653-B13A-F1323A6E6F4B";
name = "Regular";
paths = (
{
closed = 0;
nodes = (
"50 -450 LINE",
"500 950 LINE",
"50 950 LINE"
);
}
);
width = 600;
}
);
unicode = E66F;
},
